<svg width="2050" height="661" viewBox="0 0 2050 661" fill="none" xmlns="http://www.w3.org/2000/svg">
<path fill-rule="evenodd" clip-rule="evenodd" d="M72.5 0.229968C98.9948 -1.22118 123.995 4.19547 147.5 16.48C161.064 26.7567 168.147 40.5067 168.75 57.73C169.913 61.307 171.997 64.2237 175 66.48C215.827 66.1717 256.66 66.1717 297.5 66.48C342.422 67.0087 384.09 78.6752 422.5 101.48C474.932 142.177 481.182 189.26 441.25 242.73C417.703 267.275 393.12 291.025 367.5 313.98C341.117 332.47 314.45 350.385 287.5 367.73C293.978 375.145 301.478 381.395 310 386.48C338.332 402.312 366.668 418.147 395 433.98C401.443 437.105 408.108 437.94 415 436.48C439.717 414.262 461.802 389.68 481.25 362.73C498.125 334.807 515.625 307.307 533.75 280.23C542.427 269.007 553.677 264.425 567.5 266.48C585.792 275.36 604.542 283.275 623.75 290.23C645.862 279.795 667.112 267.71 687.5 253.98C705.703 243.07 724.867 240.571 745 246.48C760.21 254.202 773.128 264.62 783.75 277.73C785.417 284.397 785.417 291.062 783.75 297.73C765.617 328.157 748.117 358.99 731.25 390.23C727.62 398.322 724.703 406.655 722.5 415.23C723.958 418.985 726.04 422.317 728.75 425.23C775.458 368.05 820.04 309.3 862.5 248.98C870.11 244.172 878.443 242.09 887.5 242.73C908.172 246.825 929.005 248.075 950 246.48C963.76 241.048 976.26 233.548 987.5 223.98C1009.97 216.392 1029.97 220.558 1047.5 236.48C1054.68 242.822 1060.93 249.905 1066.25 257.73C1067.92 264.397 1067.92 271.062 1066.25 277.73C1049.12 301.97 1030.79 325.305 1011.25 347.73C1002.92 361.062 994.583 374.397 986.25 387.73C981.005 401.537 977.255 415.702 975 430.23C986.622 431.642 998.29 432.892 1010 433.98C1026.57 435.385 1031.98 444.135 1026.25 460.23C1020.71 474.337 1010.29 482.255 995 483.98C967.225 490.84 945.143 482.925 928.75 460.23C923.06 434.492 922.227 408.66 926.25 382.73C932.78 358.027 940.698 333.86 950 310.23C931.912 305.782 913.58 304.532 895 306.48C888.76 309.18 882.925 312.515 877.5 316.48C847.083 356.897 816.667 397.312 786.25 437.73C761.602 461.077 735.352 482.327 707.5 501.48C697.59 506.087 687.175 508.172 676.25 507.73C655.385 505.64 634.97 501.475 615 495.23C596.365 500.375 578.865 508.292 562.5 518.98C544.11 527.022 524.945 529.522 505 526.48C493.785 520.635 482.953 514.385 472.5 507.73C460.505 519.295 448.005 530.545 435 541.48C413.983 546.39 393.147 545.557 372.5 538.98C370.492 527.945 369.242 516.695 368.75 505.23C367.587 501.652 365.503 498.737 362.5 496.48C308.158 459.725 250.658 428.892 190 403.98C180.027 396.947 175.86 387.365 177.5 375.23C177.517 367.5 178.767 360 181.25 352.73C186.667 347.312 192.083 341.897 197.5 336.48C245.694 303.422 292.777 268.84 338.75 232.73C348.105 216.857 349.772 200.191 343.75 182.73C326.598 166.875 306.182 158.125 282.5 156.48C246.688 153.731 210.855 151.231 175 148.98C165.54 146.302 155.956 144.219 146.25 142.73C114.789 153.404 82.7057 155.488 50 148.98C28.3415 137.807 16.2582 119.89 13.75 95.23C13.7587 50.9757 33.342 19.309 72.5 0.229968ZM617.5 315.23C620.932 314.837 624.268 315.255 627.5 316.48C641.468 325.755 655.218 335.337 668.75 345.23C670.417 348.562 670.417 351.897 668.75 355.23C657.282 373.99 646.45 393.157 636.25 412.73C630.93 420.555 624.68 427.637 617.5 433.98C594.057 449.452 569.057 461.535 542.5 470.23C537.747 446.235 539.833 422.9 548.75 400.23C571.253 371.487 594.167 343.155 617.5 315.23Z" fill="white"/>
<path fill-rule="evenodd" clip-rule="evenodd" d="M1882.5 37.73C1885.8 44.6237 1887.46 52.5405 1887.5 61.48C1887.08 69.3967 1886.67 77.3132 1886.25 85.23C1866.41 111.331 1845.16 136.331 1822.5 160.23C1828.18 169.665 1835.26 177.998 1843.75 185.23C1854.54 204.772 1855.37 224.772 1846.25 245.23C1843.99 248.232 1841.08 250.317 1837.5 251.48C1811.62 254.657 1789.12 247.572 1770 230.23C1725.89 256.42 1690.48 291.42 1663.75 335.23C1659.53 351.897 1664.11 355.647 1677.5 346.48C1691.73 337.697 1705.06 327.697 1717.5 316.48C1732.64 299.677 1748.47 283.845 1765 268.98C1785.42 263.597 1805.42 264.847 1825 272.73C1825.39 276.162 1824.98 279.497 1823.75 282.73C1813.38 303.122 1802.96 323.537 1792.5 343.98C1794.47 348.95 1798.22 351.865 1803.75 352.73C1817.95 347.507 1831.7 341.257 1845 333.98C1870.83 316.48 1896.67 298.98 1922.5 281.48C1940.75 276.905 1959.09 276.487 1977.5 280.23C1975.37 287.037 1972.45 293.705 1968.75 300.23C1944.99 324.82 1920.41 348.57 1895 371.48C1866.67 391.887 1835 401.47 1800 400.23C1772.63 395.942 1745.13 393.86 1717.5 393.98C1694.18 403.23 1670.02 409.48 1645 412.73C1622.81 411.172 1604.47 402.005 1590 385.23C1579.84 398.027 1570.25 411.36 1561.25 425.23C1551.58 435.735 1541.17 445.317 1530 453.98C1497.89 465.965 1465.39 476.8 1432.5 486.48C1406.16 520.007 1378.66 552.508 1350 583.98C1332.15 601.675 1311.31 615.01 1287.5 623.98C1262.63 627.807 1237.63 628.642 1212.5 626.48C1202.39 624.34 1193.22 620.175 1185 613.98C1159.96 590.625 1138.71 564.375 1121.25 535.23C1118.43 530.617 1117.18 525.617 1117.5 520.23C1123.21 520.5 1128.21 522.582 1132.5 526.48C1152.92 548.757 1177.09 565.425 1205 576.48C1246.96 586.66 1281.54 575.41 1308.75 542.73C1336.29 505.567 1356.7 464.735 1370 420.23C1369.48 418.765 1368.64 417.515 1367.5 416.48C1343.15 416.282 1318.98 414.617 1295 411.48C1289.94 403.522 1288.69 394.772 1291.25 385.23C1306.57 364.075 1324.49 345.325 1345 328.98C1368.33 315.647 1391.67 302.312 1415 288.98C1426.12 280.837 1433.62 270.42 1437.5 257.73C1434.07 257.337 1430.73 257.755 1427.5 258.98C1401.45 280.127 1372.7 296.377 1341.25 307.73C1330.62 306.27 1320.62 302.937 1311.25 297.73C1295.54 303.422 1282.63 313.005 1272.5 326.48C1265.68 332.46 1258.18 337.46 1250 341.48C1225.56 345.337 1201.4 350.337 1177.5 356.48C1162.32 370.002 1161.48 384.167 1175 398.98C1191.74 399.315 1208.4 398.065 1225 395.23C1247.61 396.58 1256.36 408.247 1251.25 430.23C1247.18 441.635 1239.27 448.717 1227.5 451.48C1191.68 459.592 1157.51 455.425 1125 438.98C1111.5 429.84 1101.92 417.757 1096.25 402.73C1096.91 382.76 1096.91 362.76 1096.25 342.73C1090.58 331.235 1083.91 320.402 1076.25 310.23C1075.02 306.145 1074.6 301.977 1075 297.73C1094.63 297.17 1113.79 294.252 1132.5 288.98C1165.68 254.89 1204.02 228.224 1247.5 208.98C1263.4 204.272 1279.23 204.272 1295 208.98C1299.47 210.941 1303.22 213.858 1306.25 217.73C1310.33 226.627 1315.33 234.96 1321.25 242.73C1346.82 227.231 1373.07 212.648 1400 198.98C1430.9 183.971 1463.4 178.971 1497.5 183.98C1505.4 187.513 1512.9 191.679 1520 196.48C1526.67 198.147 1533.33 198.147 1540 196.48C1581.82 172.226 1624.32 148.892 1667.5 126.48C1700.76 99.8457 1735.76 75.679 1772.5 53.98C1803.93 48.613 1835.6 45.2795 1867.5 43.98C1873.69 43.8882 1878.69 41.805 1882.5 37.73ZM1737.5 160.23C1741.47 161.85 1745.63 163.1 1750 163.98C1753.33 165.647 1753.33 167.313 1750 168.98C1679.56 200.242 1625.81 249.825 1588.75 317.73C1584.3 320.177 1580.14 319.345 1576.25 315.23C1569.58 305.23 1562.92 295.23 1556.25 285.23C1553.31 275.83 1556.23 268.747 1565 263.98C1619.96 224.491 1677.46 189.907 1737.5 160.23ZM1250 267.73C1252.19 267.402 1253.86 268.235 1255 270.23C1246.6 294.072 1229.93 306.99 1205 308.98C1207.25 303.5 1209.75 298.085 1212.5 292.73C1217.5 289.397 1221.67 285.23 1225 280.23C1233.59 276.015 1241.93 271.847 1250 267.73ZM1502.5 322.73C1508.39 322.322 1514.23 322.737 1520 323.98C1527.18 342.197 1526.35 360.112 1517.5 377.73C1513.68 381.132 1509.51 384.05 1505 386.48C1484.95 388.56 1464.95 388.142 1445 385.23C1449.93 377.38 1455.35 369.88 1461.25 362.73C1476.39 350.5 1490.14 337.165 1502.5 322.73Z" fill="white"/>
<path fill-rule="evenodd" clip-rule="evenodd" d="M640 100.23C671.702 95.8907 696.287 106.724 713.75 132.73C717.333 200.763 685.248 227.847 617.5 213.98C595.247 207.968 583.582 193.385 582.5 170.23C585.293 133.285 604.458 109.952 640 100.23Z" fill="white"/>
<path fill-rule="evenodd" clip-rule="evenodd" d="M1075 112.73C1111.37 112.855 1124.29 130.355 1113.75 165.23C1108.99 177.481 1100.24 185.398 1087.5 188.98C1073.33 190.647 1059.17 190.647 1045 188.98C1035.74 184.731 1030.32 177.648 1028.75 167.73C1027.35 145.95 1036.1 129.7 1055 118.98C1062.02 117.024 1068.69 114.941 1075 112.73Z" fill="white"/>
<path fill-rule="evenodd" clip-rule="evenodd" d="M0 535.23C0 528.563 0 521.898 0 515.23C8.0609 503.398 17.6443 492.563 28.75 482.73C32.7155 477.305 36.049 471.47 38.75 465.23C60.3015 388.323 82.8015 311.655 106.25 235.23C112.268 209.397 126.018 188.981 147.5 173.98C165.087 172.512 182.587 173.345 200 176.48C206.824 186.125 210.157 196.958 210 208.98C208.971 220.409 206.887 231.659 203.75 242.73C172.458 327.428 141.625 412.428 111.25 497.73C90.7015 523.648 63.6182 536.98 30 537.73C20.1186 535.575 10.1186 534.743 0 535.23Z" fill="white"/>
<path d="M1663 633.741C1663.21 630.474 1618.79 643.625 1614.61 645.935C1610.44 648.246 1608.1 649.892 1614.19 652.469C1620.29 655.047 1627.05 655.185 1640.16 653.75C1653.28 652.315 1669.47 642.325 1670.06 640.757C1670.65 639.188 1670.34 636.401 1658.83 640.034C1647.33 643.667 1662.79 637.008 1663 633.741Z" fill="white"/>
<path fill-rule="evenodd" clip-rule="evenodd" d="M1571.92 557.565C1583.16 556.743 1594.42 563.815 1594.42 571.315C1594.42 578.815 1572.66 616.25 1570.16 620C1567.67 623.75 1578.67 622.405 1574.42 622.565C1570.16 622.725 1610.67 613.815 1611.92 613.815C1613.17 613.815 1615.67 613.815 1614.42 616.315C1613.17 618.815 1594.42 625.065 1594.42 627.032C1594.42 628.999 1615.67 626.315 1610.67 628.815C1605.67 631.315 1588.91 636.25 1588.17 638.815C1587.42 641.381 1606.17 636.173 1612.66 637.5C1620 641.439 1543.69 657.354 1528.91 660C1514.14 662.646 1523.77 642.835 1528.17 635.065C1539.69 620.805 1564.19 593.655 1575.16 578.75C1566.61 583.153 1541.92 602.565 1534.42 602.565C1526.92 602.565 1535.42 580.965 1543.17 572.565C1545.25 570.483 1547.33 568.398 1549.42 566.315C1555.71 562.254 1563.29 559.419 1571.92 557.565Z" fill="white"/>
<path fill-rule="evenodd" clip-rule="evenodd" d="M1734.42 540.065C1745.66 539.243 1756.92 546.315 1756.92 553.815C1756.92 561.315 1735.16 598.75 1732.66 602.5C1730.17 606.25 1741.17 604.905 1736.92 605.065C1732.66 605.225 1773.17 596.315 1774.42 596.315C1775.67 596.315 1778.17 596.315 1776.92 598.815C1775.67 601.315 1756.92 607.565 1756.92 609.532C1756.92 611.499 1778.17 608.815 1773.17 611.315C1768.17 613.815 1751.41 618.75 1750.67 621.315C1749.92 623.881 1768.67 618.673 1775.16 620C1782.5 623.939 1706.19 639.854 1691.41 642.5C1676.64 645.146 1686.27 625.335 1690.67 617.565C1702.19 603.305 1726.69 576.155 1737.66 561.25C1729.11 565.653 1704.42 585.065 1696.92 585.065C1689.42 585.065 1697.92 563.465 1705.67 555.065C1707.75 552.983 1709.83 550.898 1711.92 548.815C1718.21 544.754 1725.79 541.919 1734.42 540.065Z" fill="white"/>
<path fill-rule="evenodd" clip-rule="evenodd" d="M1617.66 585C1623.06 571.335 1633.91 558.75 1637.66 556.25C1641.41 553.75 1643.29 553.375 1646.41 552.5C1649.54 551.625 1651.46 551.348 1655.16 551.25C1659.97 551.381 1662.66 551.25 1665.16 552.5C1667.66 553.75 1673.91 557.5 1673.91 563.75C1673.91 570 1676 592.5 1673.91 602.5C1671.83 612.5 1668.91 616.25 1668.91 616.25C1664.84 623.857 1659.75 628.75 1653.91 630C1648.08 631.25 1639.75 632.5 1631.41 630C1623.08 627.5 1620.83 625.775 1618.91 620C1615.43 605.488 1615.5 597.923 1617.66 585ZM1637.5 589C1642.5 576.5 1642.49 573.297 1651 571C1654.56 570.001 1657 571.25 1657 575C1657 578.75 1657 587.5 1655.16 598.75C1653.33 610 1653.5 617.5 1645.16 620C1636.83 622.5 1636.33 620 1635.16 618.75C1634 617.5 1632.5 601.5 1637.5 589Z" fill="white"/>
<path d="M1818.68 589.499C1832.92 577.974 1826.4 577.25 1812.63 578.226C1798.86 579.202 1789.96 587.83 1784.65 576.521C1779.33 565.212 1783.13 547.637 1784.43 546.479C1785.73 545.322 1788.47 537.835 1800.31 532.891C1812.15 527.948 1844.05 522.428 1851.11 522.555C1858.17 522.682 1823.53 530.946 1823.62 532.745C1823.71 534.544 1844.98 528.429 1843.56 531.144C1842.15 533.859 1801.98 545.728 1805.88 546.522C1809.78 547.316 1836.93 538.543 1840.8 539.878C1844.67 541.213 1815.76 549.413 1808.8 556.822C1801.84 564.23 1814.1 565.834 1835.39 563.621C1856.68 561.408 1843.5 605 1828.5 610C1813.5 615 1780.22 625.491 1779.37 621.318C1778.52 617.145 1805.27 612.571 1807.86 610.421C1810.45 608.27 1786.48 614.602 1784.55 611.407C1782.61 608.212 1823.63 600.352 1810.76 600.914C1797.89 601.476 1785.9 605.179 1787.2 602.702C1788.49 600.224 1804.44 601.025 1818.68 589.499Z" fill="white"/>
<path d="M1963.21 91.5V37.8135H1990.86C1995.99 37.8135 1999.91 38.2529 2002.62 39.1318C2005.33 40.0107 2007.51 41.6465 2009.17 44.0391C2010.83 46.4072 2011.66 49.3003 2011.66 52.7183C2011.66 55.6968 2011.03 58.2725 2009.76 60.4453C2008.49 62.5938 2006.74 64.3394 2004.52 65.6821C2003.11 66.5366 2001.16 67.2446 1998.7 67.8062C2000.68 68.4653 2002.12 69.1245 2003.02 69.7837C2003.63 70.2231 2004.51 71.1631 2005.66 72.6035C2006.83 74.0439 2007.61 75.1548 2008 75.936L2016.02 91.5H1997.27L1988.41 75.0938C1987.29 72.9697 1986.28 71.5903 1985.41 70.9556C1984.21 70.1255 1982.85 69.7104 1981.34 69.7104H1979.88V91.5H1963.21ZM1979.88 59.5664H1986.87C1987.63 59.5664 1989.09 59.3223 1991.26 58.834C1992.36 58.6143 1993.25 58.0527 1993.94 57.1494C1994.65 56.2461 1995 55.2085 1995 54.0366C1995 52.3032 1994.45 50.9727 1993.35 50.0449C1992.25 49.1172 1990.19 48.6533 1987.16 48.6533H1979.88V59.5664Z" fill="white"/>
<circle cx="1986.25" cy="63.75" r="57.5" stroke="white" stroke-width="12.5"/>
</svg>
